<?xml version="1.0" encoding="UTF-8"?>
<!-- Do not edit this file with editors other than draw.io -->
<!DOCTYPE svg PUBLIC "-//W3C//DTD SVG 1.1//EN" "http://www.w3.org/Graphics/SVG/1.1/DTD/svg11.dtd">
<svg xmlns="http://www.w3.org/2000/svg" xmlns:xlink="http://www.w3.org/1999/xlink" version="1.1" width="831px" height="251px" viewBox="-0.5 -0.5 831 251" content="&lt;mxfile host=&quot;Electron&quot; modified=&quot;2023-08-07T13:38:20.723Z&quot; agent=&quot;Mozilla/5.0 (Windows NT 10.0; Win64; x64) AppleWebKit/537.36 (KHTML, like Gecko) draw.io/21.6.5 Chrome/114.0.5735.243 Electron/25.3.1 Safari/537.36&quot; etag=&quot;n2aBhX14qQdpZateZwwg&quot; version=&quot;21.6.5&quot; type=&quot;device&quot;&gt;&lt;diagram id=&quot;C5RBs43oDa-KdzZeNtuy&quot; name=&quot;Page-1&quot;&gt;7Zlbb5swGIZ/jS87AeZgLiEl3bps0tStvXbBARonzozJYb9+hpgQAmqTVlkyESlS4MVg/L1+Ph8AcDBd3XE8T76xiFBgaNEKwFtgGLqlGfKvUNYbxXaUEPM0UoVq4SH9Q5SoKTVPI5I1CgrGqEjnTTFksxkJRUPDnLNls9iY0WatcxyTlvAQYtpWn9JIJBsVGU6tfyZpnFQ167a7uTLFVWHVkizBEVvuSDAAcMAZE5uj6WpAaBG8Ki5PX9ZPdDSx7+5/ZL/xL//rz++PN5uHDY+5ZdsETmbi3Y92wygcBWngwfuFPvc1g+XrG+XlAtNcxUu1VayrAJJIxlOdMi4SFrMZpkGt+pzls4gU1WjyrC4zYmwuRV2KL0SIteocOBdMSomYUnV1nFI6YJTxskY4HhM7DKWeCc4mZOdK5LjPWlFJNiEiTNTtYc4XZJgKkc7iqr40jss3li75myYV7djrEm/EU5XLWM5D8koQVf8QmMdEvFJO33YaSRthUyL4Wt7HCcUiXTRfDqtuH2/L1dbKA+XuEU5rLac/veAFbtndNHOZpII8zHHZ/qXMEGcwbkG4IKt3WNcOdfUUTUVD5TRXnS7rBKFX1Cc7ycHWTmSOecXw4xhWo8tbGMJzYqi3MQwpzrKW32+Q1zT7P+UQXhqH9pXDj3MID+TQOieHsO10YAHkAU8DAQL+bfHrI5PWpTGpt1PmFcqjobQOnaNq3b3j31BpdVDpAhcCPwCBDVAAPKuXVNpmk0o5dLaw3KKaNNazp+LS6fTK8wAaFBnUGwKkt7z6yOoiwgSNO72yQ0SexxfjlWU1vNrOcna8Qh1WwVM5hbrHOgcguzjwzOK4j0455oU55XY4JVFygAeL/OcGoGK8Z04heGFO6R0TyOus5Ogl+8FbZ8Y5pyV6e/OszKAIuLdlBpWp1C+VAXDtXk5QTHdvglINgudbN3RMJq+EHk2ocSih5lkJNToINctl/BAEDnBN4KFegrm/x3YBYHbsdhe5U3qF+r33sv9d4pReydP602V5becDMAz+Ag==&lt;/diagram&gt;&lt;/mxfile&gt;" style="background-color: rgb(255, 255, 255);"><defs><style type="text/css">@import url(https://fonts.googleapis.com/css?family=Architects+Daughter);&#xa;</style></defs><g><path d="M 120 30 L 193.63 30" fill="none" stroke="none" pointer-events="stroke"/><path d="M 198.88 30 L 191.88 33.5 L 193.63 30 L 191.88 26.5 Z" fill="none" stroke="none" pointer-events="all"/><path d="M 120 30 M 120 30 C 140.63 31.11 151.18 33.1 193.63 30 M 120 30 C 141.98 27.23 164.96 26.93 193.63 30" fill="none" stroke="#d79b00" stroke-linejoin="round" stroke-linecap="round" stroke-miterlimit="10" pointer-events="stroke"/><path d="M 192.01 26.35 C 192.01 26.35 192.01 26.35 192.01 26.35 M 192.01 26.35 C 192.01 26.35 192.01 26.35 192.01 26.35 M 193.72 30.48 C 194.79 30.19 195.55 28.76 195.68 28.22 M 193.72 30.48 C 194.18 29.87 194.94 29.36 195.68 28.22" fill="none" stroke="#d79b00" stroke-width="0.5" stroke-linejoin="round" stroke-linecap="round" stroke-miterlimit="10" pointer-events="all"/><path d="M 198.88 30 M 198.88 30 C 197.39 30.99 196.23 32.23 191.88 33.5 M 198.88 30 C 198.03 31.44 196.33 31.76 191.88 33.5 M 191.88 33.5 C 192.57 32.49 193.03 30.95 193.63 30 M 191.88 33.5 C 192.45 32.64 192.72 31.18 193.63 30 M 193.63 30 C 192.4 28.58 192.44 27.73 191.88 26.5 M 193.63 30 C 193.01 29.49 193.11 28.49 191.88 26.5 M 191.88 26.5 C 192.92 28.33 194.72 27.43 198.88 30 M 191.88 26.5 C 195.34 27.25 196.96 28.75 198.88 30" fill="none" stroke="#d79b00" stroke-linejoin="round" stroke-linecap="round" stroke-miterlimit="10" pointer-events="all"/><rect x="0" y="0" width="120" height="60" fill="none" stroke="none" pointer-events="all"/><path d="M 0.05 -0.06 C 0.05 -0.06 0.05 -0.06 0.05 -0.06 M 0.05 -0.06 C 0.05 -0.06 0.05 -0.06 0.05 -0.06 M -0.21 6.34 C 1.34 5.48 1.16 4.27 5.04 0.3 M -0.21 6.34 C 1.49 3.88 3.31 3.4 5.04 0.3 M 0.19 11.98 C 1.17 6.07 10.16 0.88 10.68 -0.1 M 0.19 11.98 C 3.52 9.73 4.09 5.61 10.68 -0.1 M -0.07 18.38 C 8.69 16.05 6.48 4.66 15.67 0.26 M -0.07 18.38 C 4.17 15.09 5.65 9.6 15.67 0.26 M 0.32 24.02 C 10.77 15.19 13.35 6.66 21.31 -0.13 M 0.32 24.02 C 6.53 16.07 12.79 6.52 21.31 -0.13 M 0.06 30.42 C 5.69 24.81 14.73 13.6 26.3 0.23 M 0.06 30.42 C 4.86 24.34 12.02 18.51 26.3 0.23 M -0.2 36.82 C 10.46 30.81 11.74 23.81 31.94 -0.17 M -0.2 36.82 C 12.61 23.81 23.65 9.25 31.94 -0.17 M 0.19 42.46 C 9.41 31.55 18.96 13.94 36.93 0.19 M 0.19 42.46 C 14.1 26.73 26.85 12.21 36.93 0.19 M -0.07 48.86 C 10.31 38.15 23.31 21.96 42.57 -0.2 M -0.07 48.86 C 12.71 31.99 25.92 17.75 42.57 -0.2 M 0.33 54.5 C 17.38 33.22 31.39 12.7 47.56 0.16 M 0.33 54.5 C 13.03 38.99 29.5 22.93 47.56 0.16 M 0.72 60.14 C 12.43 40.47 30.28 26.92 53.2 -0.23 M 0.72 60.14 C 17.6 42.78 29.56 25.99 53.2 -0.23 M 5.71 60.5 C 25 40.49 44.57 16.98 58.19 0.13 M 5.71 60.5 C 24.09 38.99 42.32 22.19 58.19 0.13 M 11.35 60.11 C 27.43 32.74 48.89 11.45 63.83 -0.27 M 11.35 60.11 C 26.66 42.68 43.7 22.24 63.83 -0.27 M 16.34 60.47 C 33.16 46.23 48.9 24.25 68.82 0.09 M 16.34 60.47 C 32.94 39.94 51.63 19.28 68.82 0.09 M 21.98 60.07 C 32.58 48.25 40.78 36.87 74.46 -0.3 M 21.98 60.07 C 40.02 37.34 56.91 19.19 74.46 -0.3 M 26.97 60.43 C 40.34 45.16 48.3 30.98 79.45 0.06 M 26.97 60.43 C 44.57 39.28 60.85 20.19 79.45 0.06 M 31.95 60.79 C 48.38 48.46 57.95 29.88 85.09 -0.34 M 31.95 60.79 C 43.74 46.03 58.68 29.12 85.09 -0.34 M 37.6 60.4 C 56.95 39.41 80.94 11.5 90.08 0.02 M 37.6 60.4 C 60.6 37.81 79.63 16.74 90.08 0.02 M 42.58 60.76 C 56.06 43.75 68.2 33.14 95.72 -0.37 M 42.58 60.76 C 56.45 42.96 69.48 26.44 95.72 -0.37 M 48.23 60.36 C 68.04 36.24 90.9 17.76 100.71 -0.01 M 48.23 60.36 C 67.51 38.26 87.14 15.38 100.71 -0.01 M 53.21 60.72 C 64.58 48.4 83.26 27.23 105.7 0.35 M 53.21 60.72 C 65.22 47.7 77.96 33.28 105.7 0.35 M 58.86 60.33 C 80.2 39.84 99.5 14.75 111.34 -0.05 M 58.86 60.33 C 77.66 39.4 98.1 15.26 111.34 -0.05 M 63.84 60.69 C 79.63 43.7 93.45 25.56 116.33 0.31 M 63.84 60.69 C 76.26 42.93 92.64 29.17 116.33 0.31 M 69.49 60.3 C 90.48 40.13 108.06 13.87 121.32 0.67 M 69.49 60.3 C 87.28 40.06 103.51 20.56 121.32 0.67 M 74.47 60.66 C 88.97 45.85 106.22 25.56 121.05 7.07 M 74.47 60.66 C 86.24 47.14 100.38 34.48 121.05 7.07 M 80.12 60.26 C 90.72 50.77 104.89 33.4 120.79 13.47 M 80.12 60.26 C 94.97 41.26 110.66 22.51 120.79 13.47 M 85.1 60.62 C 94.61 44.41 108.72 33.53 121.19 19.11 M 85.1 60.62 C 95.31 48.48 108.75 32.92 121.19 19.11 M 90.75 60.23 C 104.32 48.79 116.41 30.81 120.93 25.51 M 90.75 60.23 C 101.43 48.18 108.94 38.08 120.93 25.51 M 95.73 60.59 C 106.57 51.71 111.98 36.9 121.32 31.15 M 95.73 60.59 C 100.64 53.99 110.79 44.06 121.32 31.15 M 101.38 60.19 C 110.85 56.22 116.34 44.65 121.06 37.55 M 101.38 60.19 C 109.06 53.12 113.31 45.35 121.06 37.55 M 106.36 60.55 C 111.86 54.3 112.52 54.53 120.8 43.95 M 106.36 60.55 C 111.04 57.19 112.97 54.43 120.8 43.95 M 112.01 60.16 C 112.93 57.64 115.44 52.34 121.19 49.59 M 112.01 60.16 C 114.96 56.58 118.19 51.75 121.19 49.59 M 116.99 60.52 C 118.21 59.63 120.62 57.56 120.93 55.99 M 116.99 60.52 C 117.67 59.64 119.26 58.6 120.93 55.99" fill="none" stroke="#ffe6cc" stroke-width="0.5" stroke-linejoin="round" stroke-linecap="round" stroke-miterlimit="10" pointer-events="all"/><path d="M 0 0 C 27.86 2.28 53.78 -4.53 120 0 M 0 0 C 42.5 2.5 88.47 1.33 120 0 M 120 0 C 124.77 21.09 121.48 32.81 120 60 M 120 0 C 118.04 21.75 119.72 40.04 120 60 M 120 60 C 83.65 58.09 37.9 61.02 0 60 M 120 60 C 79.59 59.67 37.85 58.91 0 60 M 0 60 C -0.41 47.55 -2.8 32.92 0 0 M 0 60 C 1.55 49.11 -0.51 35.37 0 0" fill="none" stroke="#d79b00" stroke-linejoin="round" stroke-linecap="round" stroke-miterlimit="10" pointer-events="all"/><g transform="translate(-0.5 -0.5)"><switch><foreignObject pointer-events="none" width="100%" height="100%" requiredFeatures="http://www.w3.org/TR/SVG11/feature#Extensibility" style="overflow: visible; text-align: left;"><div xmlns="http://www.w3.org/1999/xhtml" style="display: flex; align-items: unsafe center; justify-content: unsafe center; width: 118px; height: 1px; padding-top: 30px; margin-left: 1px;"><div data-drawio-colors="color: rgb(0, 0, 0); " style="box-sizing: border-box; font-size: 0px; text-align: center;"><div style="display: inline-block; font-size: 12px; font-family: Helvetica; color: rgb(0, 0, 0); line-height: 1.2; pointer-events: all; white-space: normal; overflow-wrap: normal;">.java</div></div></div></foreignObject><text x="60" y="34" fill="rgb(0, 0, 0)" font-family="Helvetica" font-size="12px" text-anchor="middle">.java</text></switch></g><path d="M 320 30 L 393.63 30" fill="none" stroke="none" pointer-events="stroke"/><path d="M 398.88 30 L 391.88 33.5 L 393.63 30 L 391.88 26.5 Z" fill="none" stroke="none" pointer-events="all"/><path d="M 320 30 M 320 30 C 336.06 34.37 349.9 29.16 393.63 30 M 320 30 C 338.64 29.25 359.8 29.82 393.63 30" fill="none" stroke="#d79b00" stroke-linejoin="round" stroke-linecap="round" stroke-miterlimit="10" pointer-events="stroke"/><path d="M 391.87 26.51 C 391.87 26.51 391.87 26.51 391.87 26.51 M 391.87 26.51 C 391.87 26.51 391.87 26.51 391.87 26.51 M 394.23 29.89 C 394.62 29.13 394.5 29.45 395.55 28.38 M 394.23 29.89 C 394.56 29.49 394.96 29.13 395.55 28.38" fill="none" stroke="#d79b00" stroke-width="0.5" stroke-linejoin="round" stroke-linecap="round" stroke-miterlimit="10" pointer-events="all"/><path d="M 398.88 30 M 398.88 30 C 395.56 30.11 393.51 34.12 391.88 33.5 M 398.88 30 C 396.32 30.44 394.07 32.43 391.88 33.5 M 391.88 33.5 C 393.07 32.25 392.52 30.27 393.63 30 M 391.88 33.5 C 392.01 32.97 393.02 31.73 393.63 30 M 393.63 30 C 393.95 28.62 393.15 27.75 391.88 26.5 M 393.63 30 C 392.92 29.28 393.07 28.22 391.88 26.5 M 391.88 26.5 C 391.94 28.73 395.2 28.69 398.88 30 M 391.88 26.5 C 393.56 26.9 396.24 28.69 398.88 30" fill="none" stroke="#d79b00" stroke-linejoin="round" stroke-linecap="round" stroke-miterlimit="10" pointer-events="all"/><rect x="200" y="0" width="120" height="60" fill="none" stroke="none" pointer-events="all"/><path d="M 199.91 0.1 C 199.91 0.1 199.91 0.1 199.91 0.1 M 199.91 0.1 C 199.91 0.1 199.91 0.1 199.91 0.1 M 200.31 5.74 C 203.33 2.89 204.45 0.05 205.56 -0.3 M 200.31 5.74 C 201.24 3.47 202.07 3.49 205.56 -0.3 M 200.05 12.14 C 199.64 8.52 203.21 9.1 210.55 0.06 M 200.05 12.14 C 202.15 9.6 203.87 7.76 210.55 0.06 M 199.79 18.54 C 208.41 10.07 210.51 4.92 216.19 -0.33 M 199.79 18.54 C 206.79 12.79 214.66 2.15 216.19 -0.33 M 200.18 24.18 C 205.74 21.74 207.21 14.29 221.18 0.03 M 200.18 24.18 C 205.96 19.36 209.8 11.5 221.18 0.03 M 199.92 30.58 C 207.1 22.29 214.77 18.58 226.82 -0.37 M 199.92 30.58 C 205.65 22.73 212 14.79 226.82 -0.37 M 200.31 36.22 C 207.18 26.94 215.17 23.9 231.81 -0.01 M 200.31 36.22 C 210.8 25.26 221.72 9.19 231.81 -0.01 M 200.05 42.62 C 206.15 30.77 219.95 17.87 236.79 0.35 M 200.05 42.62 C 214.29 25.22 228.08 11.19 236.79 0.35 M 199.79 49.02 C 214.26 33.99 229.49 16.36 242.44 -0.04 M 199.79 49.02 C 215.89 32.19 230.43 10.8 242.44 -0.04 M 200.19 54.66 C 210.84 42.56 220.9 29.51 247.42 0.32 M 200.19 54.66 C 214.48 36.56 232.49 17.56 247.42 0.32 M 200.58 60.3 C 211.9 43.89 233.16 29.05 253.07 -0.07 M 200.58 60.3 C 217.22 39.93 238.88 17.03 253.07 -0.07 M 205.57 60.66 C 222.58 40.73 237.13 26.04 258.05 0.29 M 205.57 60.66 C 219.47 47.27 231.91 30.42 258.05 0.29 M 211.21 60.27 C 227.42 42.01 243.88 24.11 263.7 -0.11 M 211.21 60.27 C 225.16 40.87 242.65 23.12 263.7 -0.11 M 216.2 60.63 C 231.69 45.49 248.15 24.41 268.68 0.25 M 216.2 60.63 C 228.28 47.2 240.95 31.05 268.68 0.25 M 221.84 60.23 C 233.97 48.09 249.96 31.84 274.33 -0.14 M 221.84 60.23 C 239.44 40.54 252.75 21.69 274.33 -0.14 M 226.83 60.59 C 248.94 40.36 267.02 20.82 279.31 0.22 M 226.83 60.59 C 247.46 39.44 266.88 16.52 279.31 0.22 M 232.47 60.2 C 246.02 44.69 252.69 31.04 284.96 -0.18 M 232.47 60.2 C 249.08 42.07 264.85 21.91 284.96 -0.18 M 237.46 60.56 C 251.3 37.13 271.55 20.12 289.94 0.18 M 237.46 60.56 C 251.05 44.41 268.71 24.94 289.94 0.18 M 243.1 60.16 C 255.97 40.01 276.14 22.11 295.59 -0.21 M 243.1 60.16 C 253.89 46.31 264.3 35.28 295.59 -0.21 M 248.09 60.52 C 269.49 39.54 289.76 11.93 300.57 0.15 M 248.09 60.52 C 261.22 44.88 273.35 32.15 300.57 0.15 M 253.73 60.13 C 267.57 40.61 280.8 25.82 306.22 -0.25 M 253.73 60.13 C 271.58 38.89 292.88 16.51 306.22 -0.25 M 258.72 60.49 C 280.37 36.34 295.51 21.86 311.2 0.11 M 258.72 60.49 C 268.24 46.77 280.26 34.82 311.2 0.11 M 264.36 60.1 C 273.9 44.56 284.81 30.21 316.85 -0.28 M 264.36 60.1 C 283.07 39.7 300.54 19.41 316.85 -0.28 M 269.35 60.46 C 293.44 36.32 307.5 16.68 321.18 0.83 M 269.35 60.46 C 286.86 38.8 307.89 16.23 321.18 0.83 M 274.99 60.06 C 291.35 39.21 313.18 21.44 320.92 7.23 M 274.99 60.06 C 288.29 45.37 303.24 27.27 320.92 7.23 M 279.98 60.42 C 296.09 48.55 311.38 25.5 321.31 12.87 M 279.98 60.42 C 291.94 49.31 304.28 35.39 321.31 12.87 M 284.97 60.78 C 295.9 51.45 306.1 42.13 321.05 19.27 M 284.97 60.78 C 296.92 46.29 309.65 30.83 321.05 19.27 M 290.61 60.39 C 300.47 47.92 311.38 37.88 320.79 25.67 M 290.61 60.39 C 298.9 50.74 305.65 44.5 320.79 25.67 M 295.6 60.75 C 304.99 56.72 308.86 44.98 321.18 31.31 M 295.6 60.75 C 303.21 55.11 307.84 45.46 321.18 31.31 M 301.24 60.35 C 307.79 52.29 309.47 48.22 320.92 37.71 M 301.24 60.35 C 307.49 53.07 313.83 47.32 320.92 37.71 M 306.23 60.71 C 308.48 54.18 317.98 48.3 321.31 43.35 M 306.23 60.71 C 309.84 56.84 315.37 51.69 321.31 43.35 M 311.87 60.32 C 316.49 59.44 317.44 51.58 321.05 49.75 M 311.87 60.32 C 314.01 56.97 315.69 54.83 321.05 49.75 M 316.86 60.68 C 319.15 60.59 318.95 59.4 320.79 56.15 M 316.86 60.68 C 318.02 58.9 319.82 57.58 320.79 56.15" fill="none" stroke="#ffe6cc" stroke-width="0.5" stroke-linejoin="round" stroke-linecap="round" stroke-miterlimit="10" pointer-events="all"/><path d="M 200 0 C 225.58 2.12 257.14 3.71 320 0 M 200 0 C 229.53 -2.52 259.3 -1.26 320 0 M 320 0 C 323.14 19.55 317.57 38.7 320 60 M 320 0 C 320.7 19.81 320.19 36.17 320 60 M 320 60 C 287.04 55.99 249.88 53.91 200 60 M 320 60 C 273.17 60.43 228.56 57.45 200 60 M 200 60 C 203.02 39.07 201.68 19.61 200 0 M 200 60 C 197.73 39.86 200 16.7 200 0" fill="none" stroke="#d79b00" stroke-linejoin="round" stroke-linecap="round" stroke-miterlimit="10" pointer-events="all"/><g transform="translate(-0.5 -0.5)"><switch><foreignObject pointer-events="none" width="100%" height="100%" requiredFeatures="http://www.w3.org/TR/SVG11/feature#Extensibility" style="overflow: visible; text-align: left;"><div xmlns="http://www.w3.org/1999/xhtml" style="display: flex; align-items: unsafe center; justify-content: unsafe center; width: 118px; height: 1px; padding-top: 30px; margin-left: 201px;"><div data-drawio-colors="color: rgb(0, 0, 0); " style="box-sizing: border-box; font-size: 0px; text-align: center;"><div style="display: inline-block; font-size: 12px; font-family: Helvetica; color: rgb(0, 0, 0); line-height: 1.2; pointer-events: all; white-space: normal; overflow-wrap: normal;">.class</div></div></div></foreignObject><text x="260" y="34" fill="rgb(0, 0, 0)" font-family="Helvetica" font-size="12px" text-anchor="middle">.class</text></switch></g><path d="M 520 30 L 685 30 L 685 133.63" fill="none" stroke="none" pointer-events="stroke"/><path d="M 685 138.88 L 681.5 131.88 L 685 133.63 L 688.5 131.88 Z" fill="none" stroke="none" pointer-events="all"/><path d="M 520 30 M 520 30 C 560.5 29.82 598.65 33.41 685 30 M 520 30 C 553.8 32.66 587.62 34.11 685 30 M 685 30 C 685.29 59.54 684.33 93.64 685 133.63 M 685 30 C 687.71 69.2 688.16 113.08 685 133.63" fill="none" stroke="#d79b00" stroke-linejoin="round" stroke-linecap="round" stroke-miterlimit="10" pointer-events="stroke"/><path d="M 681.18 132.25 C 681.18 132.25 681.18 132.25 681.18 132.25 M 681.18 132.25 C 681.18 132.25 681.18 132.25 681.18 132.25 M 683.54 135.63 C 683.85 134.87 684.17 134.54 684.85 134.12 M 683.54 135.63 C 684.14 134.88 684.7 134.61 684.85 134.12" fill="none" stroke="#d79b00" stroke-width="0.5" stroke-linejoin="round" stroke-linecap="round" stroke-miterlimit="10" pointer-events="all"/><path d="M 685 138.88 M 685 138.88 C 685.39 137.42 681.75 134.13 681.5 131.88 M 685 138.88 C 683.71 135.74 682.29 133.75 681.5 131.88 M 681.5 131.88 C 681.81 132.39 683.49 133.59 685 133.63 M 681.5 131.88 C 682.81 132.61 683.91 133.33 685 133.63 M 685 133.63 C 686.77 132.15 688.33 132.79 688.5 131.88 M 685 133.63 C 686.14 133.18 686.76 133.24 688.5 131.88 M 688.5 131.88 C 687.97 133.07 686.9 135.96 685 138.88 M 688.5 131.88 C 687.46 132.95 687 135.91 685 138.88" fill="none" stroke="#d79b00" stroke-linejoin="round" stroke-linecap="round" stroke-miterlimit="10" pointer-events="all"/><rect x="400" y="0" width="120" height="60" fill="none" stroke="none" pointer-events="all"/><path d="M 399.78 0.26 C 399.78 0.26 399.78 0.26 399.78 0.26 M 399.78 0.26 C 399.78 0.26 399.78 0.26 399.78 0.26 M 400.17 5.9 C 402.38 3.46 405.05 1.77 405.42 -0.14 M 400.17 5.9 C 402.21 3 403.72 1.2 405.42 -0.14 M 399.91 12.3 C 400.91 8.01 410.64 2.49 410.41 0.22 M 399.91 12.3 C 403.23 9.19 404.06 5.51 410.41 0.22 M 400.3 17.94 C 408.76 13.89 410.9 5.92 416.05 -0.17 M 400.3 17.94 C 404.25 11.42 409.83 6.64 416.05 -0.17 M 400.04 24.34 C 405.19 17.88 412.84 10.93 421.04 0.19 M 400.04 24.34 C 405.16 17.81 412.36 12.49 421.04 0.19 M 399.78 30.74 C 407.05 19.36 416.99 16.89 426.68 -0.21 M 399.78 30.74 C 407.08 20.76 415.5 12.95 426.68 -0.21 M 400.18 36.38 C 406.29 26.93 412.02 23.48 431.67 0.15 M 400.18 36.38 C 411.93 24.97 423.12 9.33 431.67 0.15 M 399.91 42.78 C 417.04 29.78 430.94 9.57 437.31 -0.24 M 399.91 42.78 C 413.35 27.24 425.47 13.93 437.31 -0.24 M 400.31 48.42 C 408.22 34.74 419.22 24.21 442.3 0.12 M 400.31 48.42 C 416.26 30.32 428.71 16.71 442.3 0.12 M 400.05 54.82 C 414.85 37.19 436.14 17.04 447.94 -0.27 M 400.05 54.82 C 417.8 35.01 439.13 9.85 447.94 -0.27 M 400.44 60.46 C 421.4 40.47 433.46 23.05 452.93 0.09 M 400.44 60.46 C 414.1 46.14 428.67 27.11 452.93 0.09 M 406.08 60.07 C 418.62 44.2 433.64 19.11 458.57 -0.31 M 406.08 60.07 C 419.1 44.93 434.47 27.91 458.57 -0.31 M 411.07 60.43 C 430.04 36.11 446.99 12.91 463.56 0.05 M 411.07 60.43 C 422.3 47.2 436.67 30.83 463.56 0.05 M 416.06 60.79 C 429.07 43.64 447.12 24.17 469.2 -0.34 M 416.06 60.79 C 427.28 49.33 438.56 37.98 469.2 -0.34 M 421.7 60.39 C 440.04 45.53 455.62 27.53 474.19 0.02 M 421.7 60.39 C 434.43 44.89 448.57 28.63 474.19 0.02 M 426.69 60.75 C 442.96 40.58 462.77 14.39 479.17 0.38 M 426.69 60.75 C 438.05 45.58 449.25 35.06 479.17 0.38 M 432.33 60.36 C 453.35 39.94 473.03 15.76 484.82 -0.02 M 432.33 60.36 C 454.09 37.22 471.87 14.17 484.82 -0.02 M 437.32 60.72 C 448.14 48.41 460.91 29.21 489.8 0.34 M 437.32 60.72 C 452.99 41.37 470.41 21.03 489.8 0.34 M 442.96 60.32 C 457.31 43.47 475.38 30.66 495.45 -0.05 M 442.96 60.32 C 460.01 39.77 475.99 23.26 495.45 -0.05 M 447.95 60.68 C 459.62 44.17 472.21 34.36 500.43 0.31 M 447.95 60.68 C 459.29 45.69 470.9 33.17 500.43 0.31 M 453.59 60.29 C 466.79 42.38 485.12 24.33 506.08 -0.09 M 453.59 60.29 C 474.21 38.91 494.16 16.65 506.08 -0.09 M 458.58 60.65 C 472.85 43.09 487.66 25.82 511.06 0.27 M 458.58 60.65 C 474.54 41.22 490.71 25.49 511.06 0.27 M 464.22 60.26 C 482.18 37.66 497.77 18.81 516.71 -0.12 M 464.22 60.26 C 478.61 42.67 495.76 25.39 516.71 -0.12 M 469.21 60.62 C 486.74 46.41 499.41 27.91 521.04 0.99 M 469.21 60.62 C 482.18 44.04 498.45 27.26 521.04 0.99 M 474.85 60.22 C 489.96 45.38 504.19 26.7 520.78 7.39 M 474.85 60.22 C 484.27 49.34 491.99 38.56 520.78 7.39 M 479.84 60.58 C 490.29 47.52 499.2 39.08 521.17 13.03 M 479.84 60.58 C 489.99 50.69 499.39 37.5 521.17 13.03 M 485.48 60.19 C 496.65 51.4 506.07 37.08 520.91 19.43 M 485.48 60.19 C 499.03 45.27 510.13 30.27 520.91 19.43 M 490.47 60.55 C 502.51 45.78 511.24 35.4 521.3 25.07 M 490.47 60.55 C 497.38 53.79 504.8 44.17 521.3 25.07 M 496.11 60.15 C 499.57 51.13 513.31 47.85 521.04 31.47 M 496.11 60.15 C 504.86 51.84 511.33 41.08 521.04 31.47 M 501.1 60.51 C 508 53.07 510.04 47.98 520.78 37.87 M 501.1 60.51 C 508.48 52.83 515.01 47.1 520.78 37.87 M 506.74 60.12 C 513.69 56.41 513.42 50.26 521.18 43.51 M 506.74 60.12 C 511.01 53.05 519.18 47.75 521.18 43.51 M 511.73 60.48 C 512.97 57.29 516.41 55.5 520.91 49.91 M 511.73 60.48 C 513.54 55.81 518.6 52 520.91 49.91 M 517.37 60.08 C 517.64 58.45 520.21 58.11 521.31 55.55 M 517.37 60.08 C 517.93 59.34 519.79 58.09 521.31 55.55" fill="none" stroke="#ffe6cc" stroke-width="0.5" stroke-linejoin="round" stroke-linecap="round" stroke-miterlimit="10" pointer-events="all"/><path d="M 400 0 C 429.01 -3 455.87 -0.61 520 0 M 400 0 C 447.59 0.24 492.94 2.37 520 0 M 520 0 C 522.29 12.45 520.16 26.49 520 60 M 520 0 C 522.03 15.91 521.11 32.44 520 60 M 520 60 C 493.84 61.37 465.82 57.29 400 60 M 520 60 C 488.32 57.96 453.99 58.52 400 60 M 400 60 C 398.66 46.1 399.45 32.99 400 0 M 400 60 C 400.49 45.35 399.42 27.37 400 0" fill="none" stroke="#d79b00" stroke-linejoin="round" stroke-linecap="round" stroke-miterlimit="10" pointer-events="all"/><g transform="translate(-0.5 -0.5)"><switch><foreignObject pointer-events="none" width="100%" height="100%" requiredFeatures="http://www.w3.org/TR/SVG11/feature#Extensibility" style="overflow: visible; text-align: left;"><div xmlns="http://www.w3.org/1999/xhtml" style="display: flex; align-items: unsafe center; justify-content: unsafe center; width: 118px; height: 1px; padding-top: 30px; margin-left: 401px;"><div data-drawio-colors="color: rgb(0, 0, 0); " style="box-sizing: border-box; font-size: 0px; text-align: center;"><div style="display: inline-block; font-size: 12px; font-family: Helvetica; color: rgb(0, 0, 0); line-height: 1.2; pointer-events: all; white-space: normal; overflow-wrap: normal;">加载</div></div></div></foreignObject><text x="460" y="34" fill="rgb(0, 0, 0)" font-family="Helvetica" font-size="12px" text-anchor="middle">加载</text></switch></g><path d="M 540 195 L 520 195 L 530 195 L 516.37 195" fill="none" stroke="none" pointer-events="stroke"/><path d="M 511.12 195 L 518.12 191.5 L 516.37 195 L 518.12 198.5 Z" fill="none" stroke="none" pointer-events="all"/><path d="M 540 195 M 540 195 C 534.94 198.01 528.16 194.82 520 195 M 540 195 C 534 194.69 528.41 197.15 520 195 M 520 195 C 520.39 193.3 524.53 193.63 530 195 M 520 195 C 524.78 194.77 528.6 195.82 530 195 M 530 195 C 528.74 196.01 524.03 192.33 516.37 195 M 530 195 C 525.07 194.47 519.78 196.14 516.37 195" fill="none" stroke="#d79b00" stroke-linejoin="round" stroke-linecap="round" stroke-miterlimit="10" pointer-events="stroke"/><path d="M 511.07 195.06 C 511.07 195.06 511.07 195.06 511.07 195.06 M 511.07 195.06 C 511.07 195.06 511.07 195.06 511.07 195.06 M 514.75 196.93 C 514.66 195.87 515.66 195.45 516.71 194.66 M 514.75 196.93 C 515.81 195.98 516.55 195.42 516.71 194.66" fill="none" stroke="#d79b00" stroke-width="0.5" stroke-linejoin="round" stroke-linecap="round" stroke-miterlimit="10" pointer-events="all"/><path d="M 511.12 195 M 511.12 195 C 514.73 194.85 516.35 191.72 518.12 191.5 M 511.12 195 C 513.58 193.3 515.79 193.02 518.12 191.5 M 518.12 191.5 C 517.44 192.21 517.5 193.03 516.37 195 M 518.12 191.5 C 517.43 193.22 516.48 193.91 516.37 195 M 516.37 195 C 516.9 195.3 517.18 196.32 518.12 198.5 M 516.37 195 C 516.86 196.26 517.55 196.67 518.12 198.5 M 518.12 198.5 C 515.83 198.78 512.74 196.09 511.12 195 M 518.12 198.5 C 515.46 197.99 513.46 195.81 511.12 195" fill="none" stroke="#d79b00" stroke-linejoin="round" stroke-linecap="round" stroke-miterlimit="10" pointer-events="all"/><rect x="540" y="140" width="290" height="110" fill="none" stroke="none" pointer-events="all"/><path d="M 540.31 139.65 C 540.31 139.65 540.31 139.65 540.31 139.65 M 540.31 139.65 C 540.31 139.65 540.31 139.65 540.31 139.65 M 540.05 146.04 C 541.45 144.22 542.47 143.69 545.3 140.01 M 540.05 146.04 C 541.91 143.51 543.05 142.71 545.3 140.01 M 539.79 152.44 C 540.1 150.32 547.48 147.52 550.28 140.37 M 539.79 152.44 C 543.23 146.35 548.47 141.61 550.28 140.37 M 540.18 158.08 C 541.39 150.84 551.77 147.81 555.93 139.97 M 540.18 158.08 C 545.35 154.48 548.9 147.26 555.93 139.97 M 539.92 164.48 C 548.46 159.67 550.08 150.04 560.91 140.33 M 539.92 164.48 C 544.38 159.39 550.94 152.63 560.91 140.33 M 540.31 170.13 C 547.44 163.91 559.42 146.93 566.56 139.94 M 540.31 170.13 C 550.19 161.2 560.45 149.77 566.56 139.94 M 540.05 176.52 C 546.87 166.91 550.32 163.05 571.54 140.3 M 540.05 176.52 C 553.09 164.67 564.53 149.46 571.54 140.3 M 539.79 182.92 C 550.59 169.58 556.93 158.85 577.19 139.9 M 539.79 182.92 C 552.17 168.03 566.36 151.72 577.19 139.9 M 540.18 188.56 C 556.23 174.3 563.62 152.96 582.17 140.26 M 540.18 188.56 C 550.3 174.6 560.92 160.47 582.17 140.26 M 539.92 194.96 C 559.35 174.97 574.14 158.94 587.82 139.87 M 539.92 194.96 C 551.33 180.72 566.19 168.65 587.82 139.87 M 540.32 200.6 C 562.91 179.13 581.78 159.13 592.8 140.23 M 540.32 200.6 C 559.9 176.25 581.88 153.02 592.8 140.23 M 540.06 207 C 560.48 187.25 577.79 165.64 598.45 139.83 M 540.06 207 C 557.82 188.13 573.82 168.98 598.45 139.83 M 539.79 213.4 C 556.42 194.01 574.14 174.41 603.43 140.19 M 539.79 213.4 C 563.04 185.2 589.2 157.06 603.43 140.19 M 540.19 219.04 C 554.52 195.15 578.01 180.87 609.08 139.8 M 540.19 219.04 C 565.76 190.83 592.04 161.41 609.08 139.8 M 539.93 225.44 C 564.45 195.98 595.77 158.85 614.06 140.16 M 539.93 225.44 C 569.64 192.11 599.61 156.58 614.06 140.16 M 540.32 231.08 C 571.44 196.11 603.68 158.96 619.71 139.76 M 540.32 231.08 C 562.98 204.82 584.25 177.66 619.71 139.76 M 540.06 237.48 C 565.6 206.47 590.08 171.98 624.69 140.12 M 540.06 237.48 C 563.75 208.73 586.02 180.53 624.69 140.12 M 539.8 243.88 C 567.69 208.09 595.75 176.49 630.34 139.73 M 539.8 243.88 C 569.21 209.14 598.79 177.68 630.34 139.73 M 540.19 249.52 C 563.24 221.91 580.87 195.06 635.32 140.09 M 540.19 249.52 C 563.71 222.74 584.57 197.56 635.32 140.09 M 543.21 252.15 C 570.62 223.03 598 197.18 640.97 139.7 M 543.21 252.15 C 564.72 228.39 585.4 205.05 640.97 139.7 M 548.2 252.51 C 584.11 218.73 614.93 179.71 645.95 140.06 M 548.2 252.51 C 585.48 207.29 626.11 160.41 645.95 140.06 M 553.19 252.87 C 569.09 230.48 592.79 207.81 651.6 139.66 M 553.19 252.87 C 573.99 230.5 593.22 204.26 651.6 139.66 M 558.83 252.47 C 587.5 217.39 618.78 182.56 656.58 140.02 M 558.83 252.47 C 579.27 226.34 602.06 204.61 656.58 140.02 M 563.82 252.83 C 602.12 209.75 632.38 169.34 662.23 139.63 M 563.82 252.83 C 604.07 209.08 644.17 165.2 662.23 139.63 M 569.46 252.44 C 589.04 224.22 615.95 198.52 667.21 139.99 M 569.46 252.44 C 597.5 218.83 627.13 182.43 667.21 139.99 M 574.45 252.8 C 603.66 214.97 631.46 184.05 672.2 140.35 M 574.45 252.8 C 611.92 208.65 648.48 165.54 672.2 140.35 M 580.09 252.4 C 610.23 224.82 636.72 192.98 677.84 139.95 M 580.09 252.4 C 613.1 213.77 648.99 173.42 677.84 139.95 M 585.08 252.76 C 605.22 223.54 628.23 193.89 682.83 140.31 M 585.08 252.76 C 607.62 224.23 631.56 197 682.83 140.31 M 590.72 252.37 C 616.8 225.89 643.84 192.7 688.47 139.92 M 590.72 252.37 C 610.35 225.07 635.19 198.81 688.47 139.92 M 595.71 252.73 C 629.28 207.96 671.73 172.99 693.46 140.28 M 595.71 252.73 C 625.7 215.97 657.55 181.33 693.46 140.28 M 601.35 252.33 C 642.39 210.59 676.63 162.43 699.1 139.88 M 601.35 252.33 C 632.41 221.37 662.08 185.63 699.1 139.88 M 606.34 252.69 C 630.73 228.83 651.41 195.69 704.09 140.24 M 606.34 252.69 C 629.02 223.43 650.93 199.08 704.09 140.24 M 611.98 252.3 C 630.26 232.22 649.13 206.32 709.73 139.85 M 611.98 252.3 C 640.08 218.57 669.99 186.91 709.73 139.85 M 616.97 252.66 C 640.96 222.71 664.09 198.49 714.72 140.21 M 616.97 252.66 C 651.91 216.88 685.94 180.39 714.72 140.21 M 622.61 252.27 C 657.31 210.65 695.86 166.66 720.36 139.81 M 622.61 252.27 C 644.49 229.7 663.94 206.37 720.36 139.81 M 627.6 252.63 C 659.08 211.94 693.61 177.54 725.35 140.17 M 627.6 252.63 C 661.86 212 697.23 170 725.35 140.17 M 633.24 252.23 C 662.9 215.3 704.28 172.02 730.99 139.78 M 633.24 252.23 C 657.62 220.86 682.36 193.6 730.99 139.78 M 638.23 252.59 C 664.45 215.64 697.2 184.4 735.98 140.14 M 638.23 252.59 C 659.64 230.62 680.43 205.18 735.98 140.14 M 643.87 252.2 C 669.43 215.02 700.6 182.96 741.62 139.74 M 643.87 252.2 C 671.64 218.9 703.55 183.92 741.62 139.74 M 648.86 252.56 C 685.36 216.4 710.52 182.05 746.61 140.11 M 648.86 252.56 C 671.44 227.47 697.59 200.79 746.61 140.11 M 654.5 252.16 C 687.05 209.48 722.6 176.62 752.25 139.71 M 654.5 252.16 C 690.04 211.63 729.71 166.46 752.25 139.71 M 659.49 252.52 C 688.35 221.66 716.6 184.95 757.24 140.07 M 659.49 252.52 C 686.58 223.06 710.91 191.36 757.24 140.07 M 664.48 252.88 C 698.28 210.54 738.61 171.08 762.88 139.68 M 664.48 252.88 C 689.05 224.61 715.6 196.9 762.88 139.68 M 670.12 252.49 C 694.27 227.58 719.2 197.17 767.87 140.04 M 670.12 252.49 C 709.26 212.92 742.9 169.64 767.87 140.04 M 675.11 252.85 C 706.71 213.09 740.64 179.59 773.51 139.64 M 675.11 252.85 C 715.9 206.55 753.84 163.84 773.51 139.64 M 680.75 252.45 C 702.33 221.76 732.66 195.88 778.5 140 M 680.75 252.45 C 719.85 208.35 756.87 163.48 778.5 140 M 685.74 252.81 C 711.32 218.91 734.17 196.18 783.49 140.36 M 685.74 252.81 C 706.83 227.72 731.48 200.51 783.49 140.36 M 691.38 252.42 C 720.51 215.26 750.96 181.15 789.13 139.97 M 691.38 252.42 C 724.1 211.48 762.9 170.79 789.13 139.97 M 696.37 252.78 C 714.94 224.81 740.22 204.75 794.12 140.33 M 696.37 252.78 C 725.21 216.86 753.91 185.9 794.12 140.33 M 702.01 252.38 C 733.6 217.06 757.52 187.07 799.76 139.93 M 702.01 252.38 C 728.48 225.53 751.97 199.44 799.76 139.93 M 707 252.74 C 732.57 225.74 760.89 194.62 804.75 140.29 M 707 252.74 C 735.09 220.27 763.35 186.06 804.75 140.29 M 712.64 252.35 C 729.68 229.16 753.54 201.66 810.39 139.9 M 712.64 252.35 C 735.85 220.9 764.85 191.7 810.39 139.9 M 717.63 252.71 C 751.24 211.28 786.27 175.26 815.38 140.26 M 717.63 252.71 C 735.64 230.07 753.56 210.87 815.38 140.26 M 723.27 252.32 C 760.78 210.38 791.85 176.94 821.02 139.86 M 723.27 252.32 C 754.73 215.15 788.62 180.33 821.02 139.86 M 728.26 252.68 C 755.71 214.71 786.19 180.87 826.01 140.22 M 728.26 252.68 C 762.4 216.2 796.95 177.55 826.01 140.22 M 733.9 252.28 C 755.86 222.77 778.33 195.23 831 140.58 M 733.9 252.28 C 754.79 226.52 773.63 203.14 831 140.58 M 738.89 252.64 C 770.89 218.59 795.17 187.35 830.73 146.98 M 738.89 252.64 C 758.28 227.37 778.86 204.89 830.73 146.98 M 744.53 252.25 C 765.74 230.07 781.93 212.57 831.13 152.62 M 744.53 252.25 C 763.85 232.19 781.52 212.28 831.13 152.62 M 749.52 252.61 C 769.82 221.32 793.16 194.7 830.87 159.02 M 749.52 252.61 C 779.31 212.83 813.05 177.16 830.87 159.02 M 755.16 252.21 C 780.74 223.32 806.11 187.58 830.61 165.42 M 755.16 252.21 C 774.7 232.8 788.92 214.2 830.61 165.42 M 760.15 252.57 C 783.02 223.08 806.62 195.58 831 171.06 M 760.15 252.57 C 776.22 237.32 788.03 218.17 831 171.06 M 765.79 252.18 C 794.56 221.46 821.23 196.98 830.74 177.46 M 765.79 252.18 C 786.01 227.23 806.33 204.34 830.74 177.46 M 770.78 252.54 C 781.33 233.26 796.26 218.76 831.13 183.1 M 770.78 252.54 C 789.78 231.06 808.36 211.72 831.13 183.1 M 776.42 252.14 C 792.47 240.25 801.47 218.19 830.87 189.5 M 776.42 252.14 C 796.08 228.66 819.07 206.97 830.87 189.5 M 781.41 252.5 C 789.81 237.87 806.3 227.04 830.61 195.9 M 781.41 252.5 C 796.19 237.78 807.59 225.19 830.61 195.9 M 786.39 252.86 C 804.69 230.26 819.2 210.07 831.01 201.54 M 786.39 252.86 C 795.47 243.13 805.92 229.71 831.01 201.54 M 792.04 252.47 C 806.27 240.3 813.88 227.09 830.74 207.94 M 792.04 252.47 C 808.04 233.65 822.37 217.14 830.74 207.94 M 797.02 252.83 C 809.02 241.98 819.69 225.98 831.14 213.58 M 797.02 252.83 C 803.44 242.02 814.03 233.52 831.14 213.58 M 802.67 252.43 C 809.29 248.04 816.43 239.76 830.88 219.98 M 802.67 252.43 C 812.94 242.38 825.11 229.46 830.88 219.98 M 807.65 252.79 C 815.03 241.55 827.85 229.41 830.62 226.38 M 807.65 252.79 C 814.97 244.45 819.57 238.9 830.62 226.38 M 813.3 252.4 C 820.21 246.25 822.15 236.24 831.01 232.02 M 813.3 252.4 C 818.02 246.3 825.43 237.57 831.01 232.02 M 818.28 252.76 C 821.97 248.33 828.9 244.51 830.75 238.42 M 818.28 252.76 C 822.19 250.72 823.95 245.61 830.75 238.42 M 823.93 252.36 C 826.97 252.44 828.79 249.05 831.14 244.06 M 823.93 252.36 C 827.31 249.77 828.1 246.95 831.14 244.06" fill="none" stroke="#ffe6cc" stroke-width="0.5" stroke-linejoin="round" stroke-linecap="round" stroke-miterlimit="10" pointer-events="all"/><path d="M 540 140 C 604.32 138.15 672.93 134.54 830 140 M 540 140 C 634.32 137.03 731.1 136.28 830 140 M 830 140 C 828.33 171.34 829.64 198.24 830 250 M 830 140 C 829.97 162.88 832.63 186.42 830 250 M 830 250 C 730.35 248.45 637.06 249.89 540 250 M 830 250 C 729.78 250.56 626.92 250.65 540 250 M 540 250 C 539.79 215.31 542.7 180.73 540 140 M 540 250 C 538.76 210.53 538.36 167.41 540 140" fill="none" stroke="#d79b00" stroke-linejoin="round" stroke-linecap="round" stroke-miterlimit="10" pointer-events="all"/><g transform="translate(-0.5 -0.5)"><switch><foreignObject pointer-events="none" width="100%" height="100%" requiredFeatures="http://www.w3.org/TR/SVG11/feature#Extensibility" style="overflow: visible; text-align: left;"><div xmlns="http://www.w3.org/1999/xhtml" style="display: flex; align-items: unsafe center; justify-content: unsafe center; width: 288px; height: 1px; padding-top: 195px; margin-left: 541px;"><div data-drawio-colors="color: rgb(0, 0, 0); " style="box-sizing: border-box; font-size: 0px; text-align: center;"><div style="display: inline-block; font-size: 12px; font-family: Helvetica; color: rgb(0, 0, 0); line-height: 1.2; pointer-events: all; white-space: normal; overflow-wrap: normal;">链接</div></div></div></foreignObject><text x="685" y="199" fill="rgb(0, 0, 0)" font-family="Helvetica" font-size="12px" text-anchor="middle">链接</text></switch></g><rect x="555" y="210" width="80" height="30" fill="none" stroke="none" pointer-events="all"/><path d="M 555.3 209.65 C 555.3 209.65 555.3 209.65 555.3 209.65 M 555.3 209.65 C 555.3 209.65 555.3 209.65 555.3 209.65 M 555.04 216.05 C 555.38 214.63 557.96 212.06 560.29 210.01 M 555.04 216.05 C 556.96 213.88 557.73 214.07 560.29 210.01 M 554.78 222.45 C 554.4 222.07 559.44 215.59 565.27 210.37 M 554.78 222.45 C 559.93 218.99 564.27 212.41 565.27 210.37 M 555.17 228.09 C 556.42 225.03 567.03 218.95 570.92 209.98 M 555.17 228.09 C 558.29 223.41 563.8 221.74 570.92 209.98 M 554.91 234.49 C 564 225.65 571.8 216.52 575.9 210.34 M 554.91 234.49 C 561.74 226.84 567.67 218.62 575.9 210.34 M 555.31 240.13 C 557.24 235.86 566.19 226.2 581.55 209.95 M 555.31 240.13 C 566.73 228.05 575.03 216.78 581.55 209.95 M 560.29 240.49 C 570.73 227.02 576.18 217.85 586.53 210.31 M 560.29 240.49 C 568.65 230.52 582.28 218.09 586.53 210.31 M 565.94 240.1 C 575.36 230.62 585.27 217.77 592.18 209.91 M 565.94 240.1 C 575.22 231.4 583.8 220.34 592.18 209.91 M 570.92 240.46 C 577.21 232.49 585.34 229.73 597.17 210.27 M 570.92 240.46 C 577.91 234.54 583.39 227.69 597.17 210.27 M 576.57 240.06 C 585.04 232.67 587.63 227.29 602.81 209.88 M 576.57 240.06 C 583.93 232.04 594.87 222.12 602.81 209.88 M 581.55 240.42 C 587.37 234.35 596.54 222.76 607.8 210.24 M 581.55 240.42 C 589.98 231.93 596.6 222.1 607.8 210.24 M 587.2 240.03 C 592.68 228.33 600.26 224.05 613.44 209.84 M 587.2 240.03 C 594.97 230.86 604.11 222.77 613.44 209.84 M 592.18 240.39 C 600.1 229.16 607.42 224.79 618.43 210.2 M 592.18 240.39 C 599.77 229.7 609.27 218.53 618.43 210.2 M 597.83 240 C 607.1 236.66 613.39 228.41 624.07 209.81 M 597.83 240 C 606.49 231.07 615.89 220.26 624.07 209.81 M 602.81 240.36 C 609.23 229.8 615.04 227.77 629.06 210.17 M 602.81 240.36 C 613.62 231.22 619.27 222.02 629.06 210.17 M 608.46 239.96 C 617.87 236.75 616.88 223.97 634.7 209.77 M 608.46 239.96 C 617.7 227.46 628.25 220.19 634.7 209.77 M 613.44 240.32 C 618 230.83 626.98 226.58 637.72 212.4 M 613.44 240.32 C 621.26 228.82 630.29 219.85 637.72 212.4 M 619.09 239.93 C 624.09 238.7 625.01 227.53 637.46 218.79 M 619.09 239.93 C 624.93 231.28 630.14 226.72 637.46 218.79 M 624.07 240.29 C 625.11 233.3 634.94 227.31 637.85 224.44 M 624.07 240.29 C 628.3 233.98 631.89 229.6 637.85 224.44 M 629.72 239.89 C 632.08 237.62 635.96 232.34 637.59 230.84 M 629.72 239.89 C 633.78 235.38 637.07 231.62 637.59 230.84 M 634.7 240.25 C 636.02 238.73 637.48 236.81 637.98 236.48 M 634.7 240.25 C 635.56 239.81 636.08 238.82 637.98 236.48" fill="none" stroke="#dae8fc" stroke-width="0.5" stroke-linejoin="round" stroke-linecap="round" stroke-miterlimit="10" pointer-events="all"/><path d="M 555 210 C 573.67 208.85 589.91 212.83 635 210 M 555 210 C 575.75 210.83 597.28 210.71 635 210 M 635 210 C 633.28 221.77 638.04 231.08 635 240 M 635 210 C 635.13 219.1 637.38 232.91 635 240 M 635 240 C 616.79 244.05 593.41 243.96 555 240 M 635 240 C 614.85 240.38 598.31 240.05 555 240 M 555 240 C 556.64 228.1 553.67 215.62 555 210 M 555 240 C 553.18 232.41 553.45 224.88 555 210" fill="none" stroke="#6c8ebf" stroke-linejoin="round" stroke-linecap="round" stroke-miterlimit="10" pointer-events="all"/><g transform="translate(-0.5 -0.5)"><switch><foreignObject pointer-events="none" width="100%" height="100%" requiredFeatures="http://www.w3.org/TR/SVG11/feature#Extensibility" style="overflow: visible; text-align: left;"><div xmlns="http://www.w3.org/1999/xhtml" style="display: flex; align-items: unsafe center; justify-content: unsafe center; width: 78px; height: 1px; padding-top: 225px; margin-left: 556px;"><div data-drawio-colors="color: rgb(0, 0, 0); " style="box-sizing: border-box; font-size: 0px; text-align: center;"><div style="display: inline-block; font-size: 12px; font-family: Helvetica; color: rgb(0, 0, 0); line-height: 1.2; pointer-events: all; white-space: normal; overflow-wrap: normal;">验证</div></div></div></foreignObject><text x="595" y="229" fill="rgb(0, 0, 0)" font-family="Helvetica" font-size="12px" text-anchor="middle">验证</text></switch></g><rect x="645" y="210" width="80" height="30" fill="none" stroke="none" pointer-events="all"/><path d="M 645.27 209.69 C 645.27 209.69 645.27 209.69 645.27 209.69 M 645.27 209.69 C 645.27 209.69 645.27 209.69 645.27 209.69 M 645.01 216.09 C 647.07 212.67 647.75 211.66 650.26 210.05 M 645.01 216.09 C 647.21 213.1 649.65 210.98 650.26 210.05 M 644.75 222.48 C 645.6 215.15 654.24 211.82 655.9 209.65 M 644.75 222.48 C 648.91 218.5 651.35 213.93 655.9 209.65 M 645.14 228.13 C 646.77 219.78 653.5 220.17 660.89 210.01 M 645.14 228.13 C 650.02 221.29 657.66 214.77 660.89 210.01 M 644.88 234.52 C 649.09 232.09 655.77 224.03 665.88 210.37 M 644.88 234.52 C 651.29 230.85 654.79 224.32 665.88 210.37 M 645.28 240.17 C 653.86 227.35 666.55 219.31 671.52 209.98 M 645.28 240.17 C 653.43 232.54 655.51 225.39 671.52 209.98 M 650.26 240.53 C 657.03 230.45 669.37 217.03 676.51 210.34 M 650.26 240.53 C 661.85 228.36 671.59 218.17 676.51 210.34 M 655.91 240.13 C 664.05 229.35 670.67 220.68 682.15 209.94 M 655.91 240.13 C 665.46 229.77 675.15 219.12 682.15 209.94 M 660.89 240.49 C 670.78 237.09 672.43 225.71 687.14 210.3 M 660.89 240.49 C 666.27 231.6 675.91 222.96 687.14 210.3 M 666.54 240.1 C 676.26 232.44 682.8 217.44 692.78 209.91 M 666.54 240.1 C 674.8 227 686.57 218.95 692.78 209.91 M 671.52 240.46 C 677.95 230.04 681.91 225.87 697.77 210.27 M 671.52 240.46 C 682.33 226.88 689.02 216.82 697.77 210.27 M 677.17 240.06 C 682.48 234.86 687.55 228.52 703.41 209.88 M 677.17 240.06 C 682.36 233.88 688.09 227.02 703.41 209.88 M 682.15 240.42 C 692.09 234.44 696.22 223.37 708.4 210.24 M 682.15 240.42 C 689.03 231.46 699.58 222.28 708.4 210.24 M 687.8 240.03 C 695.93 235.75 703.08 228.23 714.04 209.84 M 687.8 240.03 C 693.28 234.72 699.63 225.01 714.04 209.84 M 692.78 240.39 C 698.78 229.99 711.5 224.11 719.03 210.2 M 692.78 240.39 C 700.03 230.88 706.91 224.02 719.03 210.2 M 698.43 240 C 704.98 226.55 719.2 219.76 724.67 209.81 M 698.43 240 C 707.91 228.02 716.79 217.84 724.67 209.81 M 703.41 240.36 C 706.26 233.51 713.16 225.27 727.69 212.43 M 703.41 240.36 C 708.2 232.64 712.2 227.18 727.69 212.43 M 709.06 239.96 C 712.82 230.01 723.48 223.44 727.43 218.83 M 709.06 239.96 C 713.49 234.55 716.43 228.04 727.43 218.83 M 714.04 240.32 C 718.83 235.68 723.23 228.67 727.82 224.47 M 714.04 240.32 C 720.09 235.05 723.02 229.91 727.82 224.47 M 719.69 239.93 C 722.24 235.88 724.15 235.19 727.56 230.87 M 719.69 239.93 C 722.92 238.19 724.27 235.18 727.56 230.87 M 724.67 240.29 C 726.82 239.14 726.75 237 727.95 236.51 M 724.67 240.29 C 725.71 239.47 727.28 237.74 727.95 236.51" fill="none" stroke="#dae8fc" stroke-width="0.5" stroke-linejoin="round" stroke-linecap="round" stroke-miterlimit="10" pointer-events="all"/><path d="M 645 210 C 661.38 212.85 683.28 209.23 725 210 M 645 210 C 673.9 210.29 700.34 208.61 725 210 M 725 210 C 722.1 219.17 724.57 234.87 725 240 M 725 210 C 722.49 221.89 722.53 230.52 725 240 M 725 240 C 708.65 238.6 692.3 241.51 645 240 M 725 240 C 704.07 240.98 682.3 242.42 645 240 M 645 240 C 644.07 229.83 642.16 222.75 645 210 M 645 240 C 645.11 233.7 645.7 227.3 645 210" fill="none" stroke="#6c8ebf" stroke-linejoin="round" stroke-linecap="round" stroke-miterlimit="10" pointer-events="all"/><g transform="translate(-0.5 -0.5)"><switch><foreignObject pointer-events="none" width="100%" height="100%" requiredFeatures="http://www.w3.org/TR/SVG11/feature#Extensibility" style="overflow: visible; text-align: left;"><div xmlns="http://www.w3.org/1999/xhtml" style="display: flex; align-items: unsafe center; justify-content: unsafe center; width: 78px; height: 1px; padding-top: 225px; margin-left: 646px;"><div data-drawio-colors="color: rgb(0, 0, 0); " style="box-sizing: border-box; font-size: 0px; text-align: center;"><div style="display: inline-block; font-size: 12px; font-family: Helvetica; color: rgb(0, 0, 0); line-height: 1.2; pointer-events: all; white-space: normal; overflow-wrap: normal;">准备</div></div></div></foreignObject><text x="685" y="229" fill="rgb(0, 0, 0)" font-family="Helvetica" font-size="12px" text-anchor="middle">准备</text></switch></g><rect x="735" y="210" width="80" height="30" fill="none" stroke="none" pointer-events="all"/><path d="M 735.24 209.72 C 735.24 209.72 735.24 209.72 735.24 209.72 M 735.24 209.72 C 735.24 209.72 735.24 209.72 735.24 209.72 M 734.98 216.12 C 737.71 215.11 738.64 213.68 740.23 210.08 M 734.98 216.12 C 736.41 213.32 739.46 211.7 740.23 210.08 M 734.72 222.52 C 734.09 217.62 736.97 220.42 745.87 209.69 M 734.72 222.52 C 738.09 218.24 741.75 212.68 745.87 209.69 M 735.11 228.16 C 736.39 221.9 747.24 220.77 750.86 210.05 M 735.11 228.16 C 738.6 222.78 745.23 215.04 750.86 210.05 M 734.85 234.56 C 739.52 226.32 749.47 222.32 756.5 209.65 M 734.85 234.56 C 741.24 224.95 750.74 219.04 756.5 209.65 M 735.25 240.2 C 745.23 232.88 748.4 224.5 761.49 210.01 M 735.25 240.2 C 740.17 232.04 749.27 226.97 761.49 210.01 M 740.23 240.56 C 751.32 226.92 762.56 217.27 766.48 210.37 M 740.23 240.56 C 744.59 236.23 749.19 230.33 766.48 210.37 M 745.88 240.17 C 751.54 228.08 762.87 223.59 772.12 209.98 M 745.88 240.17 C 754.48 232.13 761.3 221.9 772.12 209.98 M 750.86 240.53 C 756.36 233.69 767.52 221.69 777.11 210.34 M 750.86 240.53 C 759.84 231.61 769.63 217.18 777.11 210.34 M 756.51 240.13 C 762.23 230.26 767.47 227.66 782.75 209.94 M 756.51 240.13 C 765.67 227.01 778.27 216.84 782.75 209.94 M 761.49 240.49 C 767.32 232.68 774.06 219.93 787.74 210.3 M 761.49 240.49 C 766.64 231.87 776.16 227.62 787.74 210.3 M 767.14 240.1 C 776.31 234.3 784.13 219.87 793.38 209.91 M 767.14 240.1 C 775 229.81 786.55 218.14 793.38 209.91 M 772.12 240.46 C 781.32 225.68 795.52 217.87 798.37 210.27 M 772.12 240.46 C 778.29 230.28 785.9 223.08 798.37 210.27 M 777.77 240.06 C 784.76 234.85 792.77 228.06 804.01 209.88 M 777.77 240.06 C 786.52 232.34 795.08 221.69 804.01 209.88 M 782.75 240.42 C 795.13 229.13 798.74 219.41 809 210.24 M 782.75 240.42 C 790.43 233.49 798.56 224.98 809 210.24 M 788.4 240.03 C 793.64 229.33 801.82 226.56 814.64 209.84 M 788.4 240.03 C 794.09 233.56 800.05 226.51 814.64 209.84 M 793.38 240.39 C 794.53 237.17 807.34 224.94 817.66 212.47 M 793.38 240.39 C 800 235.84 803.81 228.31 817.66 212.47 M 799.03 239.99 C 806.93 233.3 807.86 227.32 818.05 218.11 M 799.03 239.99 C 806.82 233.33 811.39 224.35 818.05 218.11 M 804.01 240.36 C 807.3 234.34 817.03 231.14 817.79 224.51 M 804.01 240.36 C 807.26 236.11 809.51 234.22 817.79 224.51 M 809.66 239.96 C 812.04 238.62 816.78 232.93 817.53 230.9 M 809.66 239.96 C 813.64 236.48 814.61 232.4 817.53 230.9 M 814.64 240.32 C 814.82 240.3 816.57 238.7 817.92 236.55 M 814.64 240.32 C 815.06 239.76 816.02 238.05 817.92 236.55" fill="none" stroke="#dae8fc" stroke-width="0.5" stroke-linejoin="round" stroke-linecap="round" stroke-miterlimit="10" pointer-events="all"/><path d="M 735 210 C 757.1 212.05 768.64 208.83 815 210 M 735 210 C 752.05 212.96 771.4 209.71 815 210 M 815 210 C 812.11 218.57 812.31 226.65 815 240 M 815 210 C 815.05 220.69 812.89 228.14 815 240 M 815 240 C 784.51 241.14 751.2 239.05 735 240 M 815 240 C 789.28 238.38 766.28 237.6 735 240 M 735 240 C 731.5 231.57 738.66 221.88 735 210 M 735 240 C 735.83 228.99 736.76 217.73 735 210" fill="none" stroke="#6c8ebf" stroke-linejoin="round" stroke-linecap="round" stroke-miterlimit="10" pointer-events="all"/><g transform="translate(-0.5 -0.5)"><switch><foreignObject pointer-events="none" width="100%" height="100%" requiredFeatures="http://www.w3.org/TR/SVG11/feature#Extensibility" style="overflow: visible; text-align: left;"><div xmlns="http://www.w3.org/1999/xhtml" style="display: flex; align-items: unsafe center; justify-content: unsafe center; width: 78px; height: 1px; padding-top: 225px; margin-left: 736px;"><div data-drawio-colors="color: rgb(0, 0, 0); " style="box-sizing: border-box; font-size: 0px; text-align: center;"><div style="display: inline-block; font-size: 12px; font-family: Helvetica; color: rgb(0, 0, 0); line-height: 1.2; pointer-events: all; white-space: normal; overflow-wrap: normal;">解析</div></div></div></foreignObject><text x="775" y="229" fill="rgb(0, 0, 0)" font-family="Helvetica" font-size="12px" text-anchor="middle">解析</text></switch></g><path d="M 390 195 L 326.37 195" fill="none" stroke="none" pointer-events="stroke"/><path d="M 321.12 195 L 328.12 191.5 L 326.37 195 L 328.12 198.5 Z" fill="none" stroke="none" pointer-events="all"/><path d="M 390 195 M 390 195 C 366.03 193.72 348.21 191.32 326.37 195 M 390 195 C 365.02 194.95 341.97 194.29 326.37 195" fill="none" stroke="#d79b00" stroke-linejoin="round" stroke-linecap="round" stroke-miterlimit="10" pointer-events="stroke"/><path d="M 320.84 195.32 C 320.84 195.32 320.84 195.32 320.84 195.32 M 320.84 195.32 C 320.84 195.32 320.84 195.32 320.84 195.32 M 324.52 197.19 C 325.52 196.05 325.98 195.86 326.49 194.92 M 324.52 197.19 C 325 196.17 325.59 195.59 326.49 194.92" fill="none" stroke="#d79b00" stroke-width="0.5" stroke-linejoin="round" stroke-linecap="round" stroke-miterlimit="10" pointer-events="all"/><path d="M 321.12 195 M 321.12 195 C 323.25 193.71 324.3 193.19 328.12 191.5 M 321.12 195 C 323.09 193.87 324.51 193.84 328.12 191.5 M 328.12 191.5 C 327.76 192.42 326.52 193.37 326.37 195 M 328.12 191.5 C 327.3 192.82 327.43 193.83 326.37 195 M 326.37 195 C 326.82 195.69 328 197.06 328.12 198.5 M 326.37 195 C 326.75 196.04 327.49 197.16 328.12 198.5 M 328.12 198.5 C 325.34 196.09 324.11 197.6 321.12 195 M 328.12 198.5 C 326.37 198.33 324.88 196.95 321.12 195" fill="none" stroke="#d79b00" stroke-linejoin="round" stroke-linecap="round" stroke-miterlimit="10" pointer-events="all"/><rect x="390" y="165" width="120" height="60" fill="none" stroke="none" pointer-events="all"/><path d="M 389.83 165.19 C 389.83 165.19 389.83 165.19 389.83 165.19 M 389.83 165.19 C 389.83 165.19 389.83 165.19 389.83 165.19 M 390.23 170.83 C 390 169.3 392.38 167.45 395.48 164.8 M 390.23 170.83 C 391.75 169.49 394.17 167.67 395.48 164.8 M 389.97 177.23 C 391.61 177.16 395.73 171.9 400.46 165.16 M 389.97 177.23 C 394.43 171.67 395.47 169.36 400.46 165.16 M 389.71 183.63 C 395.72 176.03 403.75 172.76 406.11 164.76 M 389.71 183.63 C 395.37 179.41 399.88 172.08 406.11 164.76 M 390.1 189.27 C 392.63 184.82 396.71 178.46 411.09 165.12 M 390.1 189.27 C 397.66 181.9 405.64 175.72 411.09 165.12 M 389.84 195.67 C 398.14 184.14 411.08 178.37 416.74 164.73 M 389.84 195.67 C 397.15 184.64 409.68 173.43 416.74 164.73 M 390.23 201.31 C 396.6 189.49 404.42 181.26 421.72 165.09 M 390.23 201.31 C 401.83 190.43 414.01 176.34 421.72 165.09 M 389.97 207.71 C 405.19 192.82 415.01 174.83 427.37 164.69 M 389.97 207.71 C 399.01 197.59 408.8 187.31 427.37 164.69 M 389.71 214.11 C 402.7 207.33 404.21 193.7 432.35 165.05 M 389.71 214.11 C 397.82 204.09 408.47 194.26 432.35 165.05 M 390.1 219.75 C 400.35 204.51 414.12 190.46 438 164.66 M 390.1 219.75 C 401.85 209.3 411.2 194.84 438 164.66 M 390.5 225.4 C 403.97 212.6 415.91 194.36 442.98 165.02 M 390.5 225.4 C 401.81 210.2 415.81 196.55 442.98 165.02 M 395.49 225.76 C 411.29 205.22 425.41 187.35 448.63 164.62 M 395.49 225.76 C 413.73 201.64 436.52 177.8 448.63 164.62 M 401.13 225.36 C 423.75 204.75 438.01 182.9 453.61 164.98 M 401.13 225.36 C 412.58 209.88 425.13 199.59 453.61 164.98 M 406.12 225.72 C 429.22 204.54 449.48 181.76 458.6 165.34 M 406.12 225.72 C 421.29 210.48 432.14 195.04 458.6 165.34 M 411.76 225.33 C 422.94 203.34 438.79 188.92 464.24 164.95 M 411.76 225.33 C 430.43 205.4 451.07 182.03 464.24 164.95 M 416.75 225.69 C 435.95 207.26 450.1 190.04 469.23 165.31 M 416.75 225.69 C 429.44 213.64 440.8 195.59 469.23 165.31 M 422.39 225.29 C 439.94 203.47 450.07 187.33 474.87 164.92 M 422.39 225.29 C 435.38 208.13 446.18 194.04 474.87 164.92 M 427.38 225.65 C 435.47 215.82 452.8 198.7 479.86 165.28 M 427.38 225.65 C 447.15 202.66 468.59 177.62 479.86 165.28 M 433.02 225.26 C 454.44 199.53 473.83 174.01 485.5 164.88 M 433.02 225.26 C 446.03 210.33 458.07 196.31 485.5 164.88 M 438.01 225.62 C 451.34 209.34 459.65 199.38 490.49 165.24 M 438.01 225.62 C 457.48 203.6 480.01 176.57 490.49 165.24 M 443.65 225.22 C 459.43 208.13 471.45 190.77 496.13 164.85 M 443.65 225.22 C 461.91 206.01 477.97 187.3 496.13 164.85 M 448.64 225.58 C 470.53 202.73 486.09 186.13 501.12 165.21 M 448.64 225.58 C 460.54 211.62 469.45 201.77 501.12 165.21 M 454.28 225.19 C 475.36 201.21 489.09 180.08 506.76 164.81 M 454.28 225.19 C 468.67 206.25 483.2 188.55 506.76 164.81 M 459.27 225.55 C 478.4 204.02 494.46 183.02 511.1 165.93 M 459.27 225.55 C 468.92 212.31 481.72 199.92 511.1 165.93 M 464.91 225.15 C 475.56 214.97 486.79 194.5 510.83 172.32 M 464.91 225.15 C 480.69 208.68 494.25 190.49 510.83 172.32 M 469.9 225.51 C 483.69 207.84 498.88 194.21 511.23 177.97 M 469.9 225.51 C 480.38 212.15 494.88 198.84 511.23 177.97 M 475.54 225.12 C 492 206.8 503.14 196.92 510.97 184.37 M 475.54 225.12 C 485.46 216.4 494.85 205.68 510.97 184.37 M 480.53 225.48 C 489.51 218.2 495.14 206.28 511.36 190.01 M 480.53 225.48 C 489.78 212.29 502.49 201.82 511.36 190.01 M 486.17 225.09 C 492.51 217.32 504.65 199.1 511.1 196.41 M 486.17 225.09 C 493.31 218.93 497.63 211.96 511.1 196.41 M 491.16 225.45 C 500.75 220.37 503.67 212.13 510.84 202.8 M 491.16 225.45 C 495.04 217.82 503.11 213.41 510.84 202.8 M 496.8 225.05 C 501.21 219.75 509.01 211.4 511.23 208.45 M 496.8 225.05 C 498.98 219.84 502.78 216.09 511.23 208.45 M 501.79 225.41 C 501.85 225.09 508.2 221.62 510.97 214.85 M 501.79 225.41 C 504.34 222.18 509.19 217.92 510.97 214.85 M 506.77 225.77 C 506.96 224.86 507.85 224.32 511.37 220.49 M 506.77 225.77 C 508.12 223.83 510.53 222.36 511.37 220.49" fill="none" stroke="#ffe6cc" stroke-width="0.5" stroke-linejoin="round" stroke-linecap="round" stroke-miterlimit="10" pointer-events="all"/><path d="M 390 165 C 433.22 162.32 466.79 166.73 510 165 M 390 165 C 434.99 164.38 479.63 164.4 510 165 M 510 165 C 506.89 188.67 512.82 215.79 510 225 M 510 165 C 508.54 177.58 510.65 188.78 510 225 M 510 225 C 467.56 226.61 430.88 226.21 390 225 M 510 225 C 473.83 224.55 433.58 225.23 390 225 M 390 225 C 390.95 204.93 392.45 189.94 390 165 M 390 225 C 388.24 212.43 390.52 194.86 390 165" fill="none" stroke="#d79b00" stroke-linejoin="round" stroke-linecap="round" stroke-miterlimit="10" pointer-events="all"/><g transform="translate(-0.5 -0.5)"><switch><foreignObject pointer-events="none" width="100%" height="100%" requiredFeatures="http://www.w3.org/TR/SVG11/feature#Extensibility" style="overflow: visible; text-align: left;"><div xmlns="http://www.w3.org/1999/xhtml" style="display: flex; align-items: unsafe center; justify-content: unsafe center; width: 118px; height: 1px; padding-top: 195px; margin-left: 391px;"><div data-drawio-colors="color: rgb(0, 0, 0); " style="box-sizing: border-box; font-size: 0px; text-align: center;"><div style="display: inline-block; font-size: 12px; font-family: Helvetica; color: rgb(0, 0, 0); line-height: 1.2; pointer-events: all; white-space: normal; overflow-wrap: normal;">初始化</div></div></div></foreignObject><text x="450" y="199" fill="rgb(0, 0, 0)" font-family="Helvetica" font-size="12px" text-anchor="middle">初始化</text></switch></g><path d="M 200 195 L 126.37 195" fill="none" stroke="none" pointer-events="stroke"/><path d="M 121.12 195 L 128.12 191.5 L 126.37 195 L 128.12 198.5 Z" fill="none" stroke="none" pointer-events="all"/><path d="M 200 195 M 200 195 C 176.17 198.1 150.36 196.5 126.37 195 M 200 195 C 176.06 197.52 151.57 197.73 126.37 195" fill="none" stroke="#d79b00" stroke-linejoin="round" stroke-linecap="round" stroke-miterlimit="10" pointer-events="stroke"/><path d="M 120.98 195.16 C 120.98 195.16 120.98 195.16 120.98 195.16 M 120.98 195.16 C 120.98 195.16 120.98 195.16 120.98 195.16 M 124.66 197.03 C 125.55 195.8 126.66 195.85 126.62 194.76 M 124.66 197.03 C 125.16 196.62 125.59 196.02 126.62 194.76" fill="none" stroke="#d79b00" stroke-width="0.5" stroke-linejoin="round" stroke-linecap="round" stroke-miterlimit="10" pointer-events="all"/><path d="M 121.12 195 M 121.12 195 C 123.18 195 125.05 193.27 128.12 191.5 M 121.12 195 C 124 194.03 126.03 193.53 128.12 191.5 M 128.12 191.5 C 128.29 192 127.67 192.38 126.37 195 M 128.12 191.5 C 127.6 193.06 126.89 194.31 126.37 195 M 126.37 195 C 126.53 196.95 128.27 197.97 128.12 198.5 M 126.37 195 C 126.64 195.82 127.43 196.86 128.12 198.5 M 128.12 198.5 C 127.98 196.54 125.48 195.97 121.12 195 M 128.12 198.5 C 125.73 197.69 123.36 196.41 121.12 195" fill="none" stroke="#d79b00" stroke-linejoin="round" stroke-linecap="round" stroke-miterlimit="10" pointer-events="all"/><rect x="200" y="165" width="120" height="60" fill="none" stroke="none" pointer-events="all"/><path d="M 200.26 164.7 C 200.26 164.7 200.26 164.7 200.26 164.7 M 200.26 164.7 C 200.26 164.7 200.26 164.7 200.26 164.7 M 200 171.1 C 202.97 168.76 204.75 166.86 205.25 165.06 M 200 171.1 C 201.58 170.12 202.03 167.7 205.25 165.06 M 199.74 177.5 C 202.98 170.35 207.1 165.09 210.89 164.67 M 199.74 177.5 C 202.38 174.83 205.94 170.41 210.89 164.67 M 200.13 183.14 C 205.94 180.62 213.98 174.55 215.88 165.03 M 200.13 183.14 C 202.81 177.42 209.09 175.88 215.88 165.03 M 199.87 189.54 C 211.2 180.81 213.67 174.68 221.52 164.63 M 199.87 189.54 C 207.01 179.35 214.57 171.46 221.52 164.63 M 200.27 195.18 C 208.4 179.79 223.35 167.55 226.51 164.99 M 200.27 195.18 C 204.86 188.36 209.94 183.62 226.51 164.99 M 200 201.58 C 205.62 189.59 211.18 188.94 231.49 165.35 M 200 201.58 C 212.88 190.25 221.31 176.59 231.49 165.35 M 199.74 207.98 C 210.35 192.74 220.61 184.23 237.14 164.96 M 199.74 207.98 C 209.45 198.51 217.31 189.22 237.14 164.96 M 200.14 213.62 C 213.12 198.42 226.88 182.14 242.13 165.32 M 200.14 213.62 C 214.67 198.22 227.74 182.37 242.13 165.32 M 199.88 220.02 C 222.12 199.4 238.97 178.43 247.77 164.92 M 199.88 220.02 C 217.06 202.2 229.51 185.81 247.77 164.92 M 200.27 225.66 C 215.38 211.39 234.12 190.57 252.76 165.28 M 200.27 225.66 C 219.09 206.53 236.5 184.68 252.76 165.28 M 205.91 225.26 C 225.03 209.01 239.44 188.94 258.4 164.89 M 205.91 225.26 C 227.03 199.69 248.49 175.96 258.4 164.89 M 210.9 225.62 C 225.78 211.02 238.04 195.95 263.39 165.25 M 210.9 225.62 C 230.12 204.24 250.06 179.25 263.39 165.25 M 216.54 225.23 C 236.99 202.24 258.67 181.28 269.03 164.85 M 216.54 225.23 C 226.74 212.11 240.06 197.62 269.03 164.85 M 221.53 225.59 C 241.34 200.87 256.77 184.71 274.02 165.21 M 221.53 225.59 C 235.33 209.85 252.8 189.07 274.02 165.21 M 227.17 225.2 C 242.95 206.83 258.83 190.97 279.66 164.82 M 227.17 225.2 C 243.51 207.05 261.15 189.33 279.66 164.82 M 232.16 225.56 C 246.69 213.01 259.33 190.4 284.65 165.18 M 232.16 225.56 C 248.71 207.39 265.52 186.4 284.65 165.18 M 237.8 225.16 C 253.38 206.37 273.73 182.98 290.29 164.78 M 237.8 225.16 C 249.16 213.14 259.86 199.31 290.29 164.78 M 242.79 225.52 C 263.27 203.09 280.56 182.67 295.28 165.14 M 242.79 225.52 C 262.05 203.89 279.68 184.39 295.28 165.14 M 248.43 225.13 C 264.94 209.25 276.08 189.01 300.92 164.75 M 248.43 225.13 C 268.53 201.86 286.54 179.05 300.92 164.75 M 253.42 225.49 C 268.57 210.01 285.68 189.39 305.91 165.11 M 253.42 225.49 C 270.45 204.03 289.15 181.45 305.91 165.11 M 259.06 225.09 C 273.59 208.83 288.81 189.44 311.55 164.72 M 259.06 225.09 C 277.41 207.31 290.47 185.69 311.55 164.72 M 264.05 225.45 C 283.06 204.39 298.97 190.83 316.54 165.08 M 264.05 225.45 C 278.12 209.33 288.34 198.63 316.54 165.08 M 269.69 225.06 C 292.39 201.84 309.16 178.37 320.87 166.19 M 269.69 225.06 C 284.97 205.22 303.16 186.94 320.87 166.19 M 274.68 225.42 C 295.63 204.23 308.7 188.01 321.26 171.83 M 274.68 225.42 C 284.86 212.57 295.34 197.5 321.26 171.83 M 279.67 225.78 C 296.07 203.76 313.14 187.22 321 178.23 M 279.67 225.78 C 290.24 213.63 301.8 201.05 321 178.23 M 285.31 225.38 C 295.21 215.41 298.78 208.35 321.39 183.87 M 285.31 225.38 C 294.88 215.78 307.03 205.06 321.39 183.87 M 290.3 225.74 C 299.8 216.44 303.03 212.44 321.13 190.27 M 290.3 225.74 C 302.01 215.62 311.25 201.92 321.13 190.27 M 295.94 225.35 C 304.51 212.39 318.7 202.41 320.87 196.67 M 295.94 225.35 C 304.36 215.33 314.69 207.08 320.87 196.67 M 300.93 225.71 C 303.01 221.08 306.44 211.65 321.27 202.31 M 300.93 225.71 C 306.13 217.47 310.57 212.87 321.27 202.31 M 306.57 225.31 C 307.88 222.62 314.09 213.8 321 208.71 M 306.57 225.31 C 313.6 220.69 316.22 212.58 321 208.71 M 311.56 225.67 C 313.54 223.25 317.02 220.03 321.4 214.35 M 311.56 225.67 C 314.97 223.46 315.82 219.37 321.4 214.35 M 317.2 225.28 C 317.73 225.35 318.86 223.35 321.14 220.75 M 317.2 225.28 C 317.75 224.81 318.67 223.62 321.14 220.75" fill="none" stroke="#ffe6cc" stroke-width="0.5" stroke-linejoin="round" stroke-linecap="round" stroke-miterlimit="10" pointer-events="all"/><path d="M 200 165 C 238.65 165.2 275.51 162.41 320 165 M 200 165 C 239.05 167.14 275.27 168.04 320 165 M 320 165 C 324.04 181.58 317.4 195.58 320 225 M 320 165 C 319.87 185.69 321.57 209.04 320 225 M 320 225 C 292.36 219.19 256.83 224.79 200 225 M 320 225 C 270.98 226.07 225.01 226.3 200 225 M 200 225 C 204.59 199.96 200.21 179.32 200 165 M 200 225 C 201 205.92 199.95 185.53 200 165" fill="none" stroke="#d79b00" stroke-linejoin="round" stroke-linecap="round" stroke-miterlimit="10" pointer-events="all"/><g transform="translate(-0.5 -0.5)"><switch><foreignObject pointer-events="none" width="100%" height="100%" requiredFeatures="http://www.w3.org/TR/SVG11/feature#Extensibility" style="overflow: visible; text-align: left;"><div xmlns="http://www.w3.org/1999/xhtml" style="display: flex; align-items: unsafe center; justify-content: unsafe center; width: 118px; height: 1px; padding-top: 195px; margin-left: 201px;"><div data-drawio-colors="color: rgb(0, 0, 0); " style="box-sizing: border-box; font-size: 0px; text-align: center;"><div style="display: inline-block; font-size: 12px; font-family: Helvetica; color: rgb(0, 0, 0); line-height: 1.2; pointer-events: all; white-space: normal; overflow-wrap: normal;">使用</div></div></div></foreignObject><text x="260" y="199" fill="rgb(0, 0, 0)" font-family="Helvetica" font-size="12px" text-anchor="middle">使用</text></switch></g><rect x="0" y="165" width="120" height="60" fill="none" stroke="none" pointer-events="all"/><path d="M -0.26 165.29 C -0.26 165.29 -0.26 165.29 -0.26 165.29 M -0.26 165.29 C -0.26 165.29 -0.26 165.29 -0.26 165.29 M 0.14 170.94 C 2.29 169.01 2.43 165.06 5.39 164.9 M 0.14 170.94 C 2.83 169.12 3.96 166.48 5.39 164.9 M -0.12 177.34 C 2.24 172.35 3.78 170.12 10.37 165.26 M -0.12 177.34 C 4.07 174.25 6.53 171.46 10.37 165.26 M 0.27 182.98 C 6.12 176.64 14.39 167.51 16.02 164.87 M 0.27 182.98 C 7.32 176.57 10.72 168.95 16.02 164.87 M 0.01 189.38 C 6.49 181.7 10.71 181.17 21 165.23 M 0.01 189.38 C 9.28 180.89 15.98 171.81 21 165.23 M -0.25 195.77 C 2.85 191.19 14.94 178.08 26.65 164.83 M -0.25 195.77 C 6.05 189.59 13.34 180.82 26.65 164.83 M 0.14 201.42 C 6.46 190.53 9.75 189.47 31.63 165.19 M 0.14 201.42 C 10.29 189.65 22.99 176.41 31.63 165.19 M -0.12 207.82 C 5.88 200.24 16.59 193.2 37.28 164.8 M -0.12 207.82 C 8.53 200.49 14.47 188.21 37.28 164.8 M 0.28 213.46 C 15.33 197.68 33.49 178.58 42.26 165.16 M 0.28 213.46 C 10.9 202.19 26.15 185.83 42.26 165.16 M 0.01 219.86 C 18.88 204.89 29.24 180.02 47.91 164.76 M 0.01 219.86 C 20.44 200.58 35.99 178.28 47.91 164.76 M 0.41 225.5 C 17.15 207.65 34.7 184.25 52.89 165.12 M 0.41 225.5 C 12.25 208.42 26.57 194.44 52.89 165.12 M 6.05 225.1 C 20.69 207.03 35.56 192.54 58.54 164.73 M 6.05 225.1 C 18.2 213.86 32.09 198.03 58.54 164.73 M 11.04 225.46 C 28.68 206.9 41.43 194.53 63.52 165.09 M 11.04 225.46 C 27.54 204.15 44.36 184.54 63.52 165.09 M 16.68 225.07 C 34.48 200.28 57.57 181.13 69.17 164.69 M 16.68 225.07 C 28.31 214.08 40.1 200.53 69.17 164.69 M 21.67 225.43 C 37.2 210.06 41.72 196.22 74.15 165.05 M 21.67 225.43 C 37.01 209.88 47.31 195.69 74.15 165.05 M 26.66 225.79 C 47.24 205.12 65.08 182.34 79.8 164.66 M 26.66 225.79 C 44.45 205.27 64.61 179.6 79.8 164.66 M 32.3 225.4 C 43.81 214.12 58.95 201.04 84.78 165.02 M 32.3 225.4 C 45.92 214.3 54.24 198.49 84.78 165.02 M 37.29 225.76 C 47.55 209.92 60.57 200.17 90.43 164.62 M 37.29 225.76 C 50.87 210.35 61.49 195.48 90.43 164.62 M 42.93 225.36 C 54.47 206.23 69.65 190.9 95.41 164.98 M 42.93 225.36 C 57.95 209.11 70.66 196.2 95.41 164.98 M 47.92 225.72 C 65.18 208.14 79.15 185.63 100.4 165.34 M 47.92 225.72 C 66.22 205.2 83.71 182.6 100.4 165.34 M 53.56 225.33 C 68.07 203.47 90.28 179.59 106.04 164.95 M 53.56 225.33 C 73.36 203.73 90.71 181.27 106.04 164.95 M 58.55 225.69 C 76.19 206.04 101.58 179.79 111.03 165.31 M 58.55 225.69 C 68.83 214.27 79.55 200.95 111.03 165.31 M 64.19 225.29 C 73.12 207.15 91.21 193.17 116.67 164.92 M 64.19 225.29 C 84.44 203.9 104.83 180.14 116.67 164.92 M 69.18 225.65 C 87.95 204.05 95.58 189.42 121.01 166.03 M 69.18 225.65 C 82.49 210.66 96.14 197.92 121.01 166.03 M 74.82 225.26 C 86.44 210.13 99.86 193.06 121.4 171.67 M 74.82 225.26 C 92.49 207.44 108.99 189.04 121.4 171.67 M 79.81 225.62 C 90.55 210.41 101.23 200.48 121.14 178.07 M 79.81 225.62 C 88.57 214.69 97.19 202.84 121.14 178.07 M 85.45 225.22 C 95.62 215.76 98.43 203.67 120.88 184.47 M 85.45 225.22 C 96.66 215.14 107.22 200.83 120.88 184.47 M 90.44 225.58 C 100.05 215.16 115.04 195.98 121.27 190.11 M 90.44 225.58 C 102.03 214.52 111.8 201.61 121.27 190.11 M 96.08 225.19 C 105.73 216.03 113.98 206.3 121.01 196.51 M 96.08 225.19 C 100.8 218.04 108.14 210.25 121.01 196.51 M 101.07 225.55 C 108.44 216.92 116.26 209.84 121.41 202.15 M 101.07 225.55 C 108.33 220.09 112.96 211.51 121.41 202.15 M 106.71 225.15 C 113.58 217.07 118.2 215.77 121.14 208.55 M 106.71 225.15 C 111.7 219.85 114.26 214.71 121.14 208.55 M 111.7 225.51 C 117.61 218.82 119.57 219.78 120.88 214.95 M 111.7 225.51 C 114.54 222.49 118.72 217.01 120.88 214.95 M 117.34 225.12 C 119.02 222.74 121.3 220.69 121.28 220.59 M 117.34 225.12 C 118.07 223.75 119.83 222.91 121.28 220.59" fill="none" stroke="#ffe6cc" stroke-width="0.5" stroke-linejoin="round" stroke-linecap="round" stroke-miterlimit="10" pointer-events="all"/><path d="M 0 165 C 42.08 160.08 82.24 166.09 120 165 M 0 165 C 29.11 165.1 60.92 162.87 120 165 M 120 165 C 120.78 186.49 117.59 207.37 120 225 M 120 165 C 121.21 181.79 118.49 201.31 120 225 M 120 225 C 75.16 224.58 32.77 220.17 0 225 M 120 225 C 86.13 222.79 54.43 222.57 0 225 M 0 225 C -2.16 206.99 3.58 192.7 0 165 M 0 225 C -0.25 211.41 -0.63 196.2 0 165" fill="none" stroke="#d79b00" stroke-linejoin="round" stroke-linecap="round" stroke-miterlimit="10" pointer-events="all"/><g transform="translate(-0.5 -0.5)"><switch><foreignObject pointer-events="none" width="100%" height="100%" requiredFeatures="http://www.w3.org/TR/SVG11/feature#Extensibility" style="overflow: visible; text-align: left;"><div xmlns="http://www.w3.org/1999/xhtml" style="display: flex; align-items: unsafe center; justify-content: unsafe center; width: 118px; height: 1px; padding-top: 195px; margin-left: 1px;"><div data-drawio-colors="color: rgb(0, 0, 0); " style="box-sizing: border-box; font-size: 0px; text-align: center;"><div style="display: inline-block; font-size: 12px; font-family: Helvetica; color: rgb(0, 0, 0); line-height: 1.2; pointer-events: all; white-space: normal; overflow-wrap: normal;">卸载</div></div></div></foreignObject><text x="60" y="199" fill="rgb(0, 0, 0)" font-family="Helvetica" font-size="12px" text-anchor="middle">卸载</text></switch></g></g><switch><g requiredFeatures="http://www.w3.org/TR/SVG11/feature#Extensibility"/><a transform="translate(0,-5)" xlink:href="https://www.drawio.com/doc/faq/svg-export-text-problems" target="_blank"><text text-anchor="middle" font-size="10px" x="50%" y="100%">Text is not SVG - cannot display</text></a></switch></svg>